{"title":"WWE.Superstars.3.11.2011.1080p.H.264.Mp4.Full.show.MM.By.Snaw90","uid":6794164,"size":1316958217,"categoryP":"video","categoryS":"hd___tv_shows","magnet":"?xt=urn:btih:91419bf0aefaf783869e82667c75095f3bef6f4c&amp;dn=WWE.Superstars.3.11.2011.1080p.H.264.Mp4.Full.show.MM.By.Snaw90&amp;tr=udp%3A%2F%2Ftracker.openbittorrent.com%3A80&amp;tr=udp%3A%2F%2Fopen.demonii.com%3A1337&amp;tr=udp%3A%2F%2Ftracker.coppersurfer.tk%3A6969&amp;tr=udp%3A%2F%2Fexodus.desync.com%3A6969","seeders":0,"leechers":0,"uploader":null,"files":1,"time":1320385819,"description":"General\nComplete name        :WWE.Superstars.3.11.2011.1080p.H.264.Mp4.Full.show.MM.By.Snaw90.mp4\nFormat                                   : MP4\nFile size                                : 1.23 GiB\nDuration                                 : 42mn 13s\n\n\nVideo\n\nFormat                                   : AVC\nFormat profile                           : &lt;a class=&quot;__cf_email__&quot; href=&quot;/cdn-cgi/l/email-protection&quot; data-cfemail=&quot;4f072628270f037b617d&quot;&gt;[email&amp;#160;protected]&lt;/a&gt;&lt;script cf-hash='f9e31' type=&quot;text/javascript&quot;&gt;\n/* &lt;![CDATA[ */!function(){try{var t=&quot;currentScript&quot;in document?document.currentScript:function(){for(var t=document.getElementsByTagName(&quot;script&quot;),e=t.length;e--;)if(t[e].getAttribute(&quot;cf-hash&quot;))return t[e]}();if(t&amp;&amp;t.previousSibling){var e,r,n,i,c=t.previousSibling,a=c.getAttribute(&quot;data-cfemail&quot;);if(a){for(e=&quot;&quot;,r=parseInt(a.substr(0,2),16),n=2;a.length-n;n+=2)i=parseInt(a.substr(n,2),16)^r,e+=String.fromCharCode(i);e=document.createTextNode(e),c.parentNode.replaceChild(e,c)}}}catch(u){}}();/* ]]&gt; */&lt;/script&gt;\nDuration                                 : 42mn 13s\nWidth                                    : 1280 pixels\nHeight                                   : 1080 pixels\nDisplay aspect ratio                     : 16:9\nFrame rate                               : 24.000 fps\nStandard                                 : NTSC\nChroma subsampling                       : 4:2:0\nStream size                              : 1.18 GiB (96%)\nLanguage                                 : English\n\n\nAudio\n\nFormat                                   : AAC\nDuration                                 : 42mn 13s\nChannel(s)                               : 2 channels\nStream size                              : 47.6 MiB (4%)\nLanguage                                 : English\n\n\n","torrent":{"xt":"urn:btih:91419bf0aefaf783869e82667c75095f3bef6f4c","amp;dn":"WWE.Superstars.3.11.2011.1080p.H.264.Mp4.Full.show.MM.By.Snaw90","amp;tr":["udp%3A%2F%2Ftracker.openbittorrent.com%3A80","udp%3A%2F%2Fopen.demonii.com%3A1337","udp%3A%2F%2Ftracker.coppersurfer.tk%3A6969","udp%3A%2F%2Fexodus.desync.com%3A6969"],"infoHash":"91419bf0aefaf783869e82667c75095f3bef6f4c","infoHashBuffer":{"type":"Buffer","data":[145,65,155,240,174,250,247,131,134,158,130,102,124,117,9,95,59,239,111,76]},"announce":[],"urlList":[]}}